<?xml version="1.0" standalone="no"?>
<!DOCTYPE svg PUBLIC "-//W3C//DTD SVG 20010904//EN"
 "http://www.w3.org/TR/2001/REC-SVG-20010904/DTD/svg10.dtd">
<svg version="1.0" xmlns="http://www.w3.org/2000/svg"
 width="260.000000pt" height="260.000000pt" viewBox="0 0 260.000000 260.000000"
 preserveAspectRatio="xMidYMid meet">
<metadata>
Created by potrace 1.11, written by Peter Selinger 2001-2013
</metadata>
<g transform="translate(0.000000,260.000000) scale(0.100000,-0.100000)"
fill="#000000" stroke="none">
<path d="M220 1320 l0 -570 76 0 77 0 -5 456 -5 456 182 -453 183 -454 54 -3
53 -3 184 456 c101 250 186 454 188 452 1 -2 -1 -118 -7 -258 -5 -140 -10
-343 -10 -451 l0 -198 80 0 80 0 0 570 0 571 -101 -3 -102 -3 -181 -462 c-157
-402 -182 -459 -192 -440 -6 12 -89 221 -184 465 l-173 442 -98 0 -99 0 0
-570z"/>
<path d="M1630 1320 l0 -570 80 0 80 0 0 229 0 229 208 4 c199 3 209 4 263 29
80 38 131 88 165 161 24 54 28 75 28 150 -1 78 -4 94 -33 153 -41 83 -105 136
-198 165 -58 18 -92 20 -329 20 l-264 0 0 -570z m557 427 c78 -42 118 -120
111 -215 -5 -74 -34 -129 -87 -167 l-43 -30 -189 -3 -189 -4 0 222 0 222 183
-4 c151 -2 188 -6 214 -21z"/>
</g>
</svg>
